<svg id="Icons_Notification" data-name="Icons/Notification" xmlns="http://www.w3.org/2000/svg" xmlns:xlink="http://www.w3.org/1999/xlink" width="19.118" height="19.118" viewBox="0 0 19.118 19.118">
  <defs>
    <clipPath id="clip-path">
      <path id="Mask" d="M7.647,19.118A2.871,2.871,0,0,1,4.78,16.251v-.956H0V13.383H1.912V7.647A5.674,5.674,0,0,1,3.358,3.686a5.715,5.715,0,0,1,3.334-1.7V0H8.6V1.987a5.717,5.717,0,0,1,3.333,1.7,5.673,5.673,0,0,1,1.447,3.962v5.736h1.912v1.912h-4.78v.956A2.871,2.871,0,0,1,7.647,19.118Zm-.956-3.823v.956a.956.956,0,1,0,1.912,0v-.956ZM7.647,3.823A3.665,3.665,0,0,0,3.823,7.647v5.736h7.647V7.647A3.664,3.664,0,0,0,7.648,3.823Z" transform="translate(0)"/>
    </clipPath>
  </defs>
  <rect id="Icon_Grid" data-name="Icon Grid" width="19.118" height="19.118" fill="none"/>
  <g id="Group_11" data-name="Group 11" transform="translate(1.912 0)">
    <path id="Mask-2" data-name="Mask" d="M7.647,19.118A2.871,2.871,0,0,1,4.78,16.251v-.956H0V13.383H1.912V7.647A5.674,5.674,0,0,1,3.358,3.686a5.715,5.715,0,0,1,3.334-1.7V0H8.6V1.987a5.717,5.717,0,0,1,3.333,1.7,5.673,5.673,0,0,1,1.447,3.962v5.736h1.912v1.912h-4.78v.956A2.871,2.871,0,0,1,7.647,19.118Zm-.956-3.823v.956a.956.956,0,1,0,1.912,0v-.956ZM7.647,3.823A3.665,3.665,0,0,0,3.823,7.647v5.736h7.647V7.647A3.664,3.664,0,0,0,7.648,3.823Z" transform="translate(0)"/>
    <g id="Mask_Group_11" data-name="Mask Group 11" transform="translate(0)" clip-path="url(#clip-path)">
      <g id="Color_Flat_Dark_Shade_600" data-name="Color/Flat/Dark Shade/600" transform="translate(-1.912 0)">
        <rect id="Rectangle" width="19.118" height="19.118" fill="#63696f"/>
      </g>
    </g>
  </g>
</svg>
