<svg xmlns="http://www.w3.org/2000/svg" width="21" height="21" viewBox="0 0 21 21">
  <g id="search" transform="translate(0 -0.452)">
    <path id="search-2" data-name="search" d="M19.553,21a1.629,1.629,0,0,1-1.142-.479L12.79,14.9a8.167,8.167,0,1,1,2.129-2.117l5.606,5.607A1.559,1.559,0,0,1,20.6,20.55c-.009.011-.019.02-.028.03a1.532,1.532,0,0,1-.163.139A1.415,1.415,0,0,1,19.553,21ZM8.178,1.8a6.393,6.393,0,1,0,6.411,6.392A6.409,6.409,0,0,0,8.178,1.8Z" transform="translate(0 0.452)" fill="rgba(0,0,0,0.3)"/>
    <path id="search-3" data-name="search" d="M19.553,21a1.629,1.629,0,0,1-1.142-.479L12.79,14.9a8.167,8.167,0,1,1,2.129-2.117l5.606,5.607A1.559,1.559,0,0,1,20.6,20.55c-.009.011-.019.02-.028.03a1.532,1.532,0,0,1-.163.139A1.415,1.415,0,0,1,19.553,21ZM8.178,1.8a6.393,6.393,0,1,0,6.411,6.392A6.409,6.409,0,0,0,8.178,1.8Z" transform="translate(0 0.452)" fill="rgba(0,0,0,0.3)"/>
  </g>
</svg>
