<svg xmlns="http://www.w3.org/2000/svg" width="87.435" height="14.394" viewBox="0 0 87.435 14.394">
  <g id="Group_31" data-name="Group 31" transform="translate(-71.799 -787.668)">
    <path id="Path_6920" data-name="Path 6920" d="M144.362,802.061l5.462-8.191,5.462,8.191h3.948L151.8,790.909l-1.974-2.96-1.974,2.96-7.438,11.152Z" fill="#fff"/>
    <path id="Path_6921" data-name="Path 6921" d="M98.976,787.67v11.683h9.544V787.67h3.334v10.987a3.75,3.75,0,0,1-.734,2.69,4.139,4.139,0,0,1-2.831.715h-9.1a4.135,4.135,0,0,1-2.824-.715,3.724,3.724,0,0,1-.742-2.69V787.67Z" fill="#fff"/>
    <path id="Path_6922" data-name="Path 6922" d="M121.433,790.162h7.529a2.013,2.013,0,0,1,1.191.253,1.055,1.055,0,0,1,.321.877v1.729a1.074,1.074,0,0,1-.321.892,2.016,2.016,0,0,1-1.191.251h-4.95l6.406,7.086.914.81h3.879l-5.1-5.431h.336a3.759,3.759,0,0,0,2.483-.666,2.677,2.677,0,0,0,.77-2.124v-3.377a2.668,2.668,0,0,0-.77-2.131,3.784,3.784,0,0,0-2.483-.66H118.139l2.253,2.491Z" fill="#fff"/>
    <path id="Path_6923" data-name="Path 6923" d="M75.825,802.061l5.571-8.353,5.569,8.353h4.026l-7.583-11.37L81.4,787.669l-2.014,3.022L71.8,802.061Z" fill="#fff"/>
  </g>
</svg>
