<svg xmlns="http://www.w3.org/2000/svg" width="22.773" height="18.763" viewBox="0 0 22.773 18.763">
  <g id="bathtub" transform="translate(0)">
    <path id="Path_10953" data-name="Path 10953" d="M382.536,193.82l.3,1.468h-.6l-.3-1.468Z" transform="translate(-373.456 -189.859)"/>
    <path id="Path_10954" data-name="Path 10954" d="M408.165,193.82h-.595v1.468h.595Z" transform="translate(-400.398 -189.859)"/>
    <path id="Path_10955" data-name="Path 10955" d="M428.786,193.82h.595l-.3,1.468h-.594Z" transform="translate(-422.93 -189.859)"/>
    <path id="Path_10956" data-name="Path 10956" d="M170.05,140.039h1.7v-6.7a2.507,2.507,0,0,1,4.938-.617l.01,0v.036c0,.018.01.034.013.052a2.049,2.049,0,0,1,1.527,1.137.3.3,0,0,1-.269.425h-3.138a.3.3,0,0,1-.268-.425,2.044,2.044,0,0,1,1.42-1.114,1.8,1.8,0,0,0-3.529.5v6.7h9.861v-.473h5.547v.473h2.729a1.113,1.113,0,0,1,.264,2.195v2.142a3.909,3.909,0,0,1-2.3,3.556,2.527,2.527,0,0,1,.625,1.662h-1.057a1.484,1.484,0,0,0-.832-1.329c-.114.01-.228.017-.344.017H173.866a3.9,3.9,0,0,1-.534-.041,1.486,1.486,0,0,0-.875,1.352H171.4a2.518,2.518,0,0,1,.7-1.738,3.9,3.9,0,0,1-2.14-3.48v-2.116a1.113,1.113,0,0,1,.089-2.222Zm7.343-6.257a1.432,1.432,0,0,0-1.982,0Zm9.766,6.489h-4.138v5.195h4.138Zm3.844.883a.411.411,0,0,0-.411-.411h-2.729v.821h2.729a.411.411,0,0,0,.411-.41Zm-20.338,3.222a3.2,3.2,0,0,0,3.2,3.2h13.085a3.205,3.205,0,0,0,3.2-3.2v-2.107h-2.289v3.9h-5.547v-3.9H170.665Zm-.615-2.811h12.267v-.821H170.05a.411.411,0,1,0,0,.821Z" transform="translate(-168.935 -130.832)"/>
  </g>
</svg>
