<svg xmlns="http://www.w3.org/2000/svg" width="24.444" height="24.444" viewBox="0 0 24.444 24.444">
  <g id="_1161953_instagram_icon" data-name="1161953_instagram_icon" transform="translate(0 0)">
    <path id="Path_6924" data-name="Path 6924" d="M21.708,16.7a6.308,6.308,0,1,0,6.308,6.308A6.32,6.32,0,0,0,21.708,16.7Zm0,10.349a4.041,4.041,0,1,1,4.041-4.041A4.059,4.059,0,0,1,21.708,27.049Z" transform="translate(-9.486 -10.835)" fill="#d9bc9f"/>
    <circle id="Ellipse_1" data-name="Ellipse 1" cx="1.429" cy="1.429" r="1.429" transform="translate(17.347 4.288)" fill="#d9bc9f"/>
    <path id="Path_6925" data-name="Path 6925" d="M25.873,6.821A7.019,7.019,0,0,0,20.7,4.8H10.546A6.751,6.751,0,0,0,3.4,11.946v10.1a7.091,7.091,0,0,0,2.07,5.273A7.192,7.192,0,0,0,10.6,29.244H20.649a7.277,7.277,0,0,0,5.175-1.922A7.055,7.055,0,0,0,27.844,22.1V11.946A7.065,7.065,0,0,0,25.873,6.821Zm-.2,15.277a4.815,4.815,0,0,1-1.429,3.6,5.094,5.094,0,0,1-3.6,1.281H10.6A5.094,5.094,0,0,1,7,25.7a4.954,4.954,0,0,1-1.331-3.647v-10.1A4.913,4.913,0,0,1,7,8.348a5.012,5.012,0,0,1,3.6-1.281H20.747a4.913,4.913,0,0,1,3.6,1.331,5.085,5.085,0,0,1,1.331,3.548V22.1Z" transform="translate(-3.4 -4.8)" fill="#d9bc9f"/>
  </g>
</svg>
