<svg xmlns="http://www.w3.org/2000/svg" width="16.067" height="19.86" viewBox="0 0 16.067 19.86">
  <g id="place" transform="translate(0)">
    <g id="Group_7" data-name="Group 7" transform="translate(0)">
      <g id="Group_6" data-name="Group 6">
        <path id="Path_16" data-name="Path 16" d="M63.512,3.453a8.019,8.019,0,0,0-13.184,0,8.02,8.02,0,0,0-.934,7.389,6.316,6.316,0,0,0,1.164,1.922l5.833,6.851a.694.694,0,0,0,1.057,0l5.831-6.85a6.322,6.322,0,0,0,1.164-1.919A8.021,8.021,0,0,0,63.512,3.453Zm-.368,6.907a4.953,4.953,0,0,1-.916,1.5l0,0-5.3,6.23L51.612,11.86a4.956,4.956,0,0,1-.918-1.5,6.634,6.634,0,0,1,.775-6.113,6.63,6.63,0,0,1,10.9,0A6.635,6.635,0,0,1,63.143,10.36Z" transform="translate(-48.886)" fill="#c2c2c2"/>
      </g>
    </g>
    <g id="Group_9" data-name="Group 9" transform="translate(4.145 4.12)">
      <g id="Group_8" data-name="Group 8">
        <path id="Path_17" data-name="Path 17" d="M159.643,106.219a3.889,3.889,0,1,0,3.889,3.889A3.893,3.893,0,0,0,159.643,106.219Zm0,6.388a2.5,2.5,0,1,1,2.5-2.5A2.5,2.5,0,0,1,159.643,112.607Z" transform="translate(-155.754 -106.219)" fill="#c2c2c2"/>
      </g>
    </g>
  </g>
</svg>
