<svg xmlns="http://www.w3.org/2000/svg" width="16.72" height="16.72" viewBox="0 0 16.72 16.72">
  <g id="loupe_2_" data-name="loupe (2)" transform="translate(0.5 0.5)">
    <g id="Group_22" data-name="Group 22">
      <g id="Group_21" data-name="Group 21">
        <path id="Path_15" data-name="Path 15" d="M6.923,0a6.923,6.923,0,1,0,6.923,6.923A6.931,6.931,0,0,0,6.923,0Zm0,12.567a5.645,5.645,0,1,1,5.645-5.645A5.651,5.651,0,0,1,6.923,12.567Z" fill="#fff" stroke="#fff" stroke-width="1"/>
      </g>
    </g>
    <g id="Group_24" data-name="Group 24" transform="translate(10.778 10.778)">
      <g id="Group_23" data-name="Group 23">
        <path id="Path_16" data-name="Path 16" d="M355.8,354.9l-3.664-3.664a.639.639,0,0,0-.9.9L354.9,355.8a.639.639,0,0,0,.9-.9Z" transform="translate(-351.046 -351.046)" fill="#fff" stroke="#fff" stroke-width="1"/>
      </g>
    </g>
  </g>
</svg>
