<?xml version="1.0" encoding="utf-8"?>
<!-- Generator: Adobe Illustrator 22.0.1, SVG Export Plug-In . SVG Version: 6.00 Build 0)  -->
<svg version="1.1" id="Layer_1" xmlns="http://www.w3.org/2000/svg" xmlns:xlink="http://www.w3.org/1999/xlink" x="0px" y="0px"
	 viewBox="0 0 19.9 66.3" style="enable-background:new 0 0 19.9 66.3;" xml:space="preserve">
<style type="text/css">
	.st0{fill:#FFFFFF;}
</style>
<path id="right-arrow" d="M12.2,0.2C11.9-0.1,11.3,0,11,0.3c-0.3,0.3-0.3,0.8,0,1.1l6.4,6H0.8C0.4,7.5,0,7.8,0,8.3
	c0,0.5,0.4,0.8,0.8,0.8h16.6l-6.3,6c-0.3,0.3-0.4,0.8-0.1,1.2c0.3,0.3,0.8,0.4,1.2,0.1c0,0,0,0,0.1-0.1l7.2-6.9
	c0.6-0.6,0.6-1.7,0-2.3c0,0,0,0,0,0L12.2,0.2z"/>
<path id="right-arrow_1_" class="st0" d="M12.2,49.9c-0.3-0.3-0.9-0.3-1.2,0.1c-0.3,0.3-0.3,0.8,0,1.1l6.4,6H0.8
	c-0.5,0-0.8,0.4-0.8,0.8s0.4,0.8,0.8,0.8h16.6l-6.3,6c-0.3,0.3-0.4,0.8-0.1,1.2c0.3,0.3,0.8,0.4,1.2,0.1c0,0,0,0,0.1-0.1l7.2-6.9
	c0.6-0.6,0.6-1.7,0-2.3c0,0,0,0,0,0L12.2,49.9z"/>
</svg>
