<?xml version="1.0" standalone="no"?>
<!DOCTYPE svg PUBLIC "-//W3C//DTD SVG 1.1//EN" "http://www.w3.org/Graphics/SVG/1.1/DTD/svg11.dtd" >
<svg xmlns="http://www.w3.org/2000/svg">
<metadata>Generated by IcoMoon</metadata>
<defs>
<font id="icomoon" horiz-adv-x="1024">
<font-face units-per-em="1024" ascent="960" descent="-64" />
<missing-glyph horiz-adv-x="1024" />
<glyph unicode="&#x20;" horiz-adv-x="512" d="" />
<glyph unicode="&#xe900;" glyph-name="abut" d="M945.694 80.565h-843.294c-55.863 1.686-100.714 46.537-102.396 102.242l-0.004 0.158v108.424c1.686 55.863 46.537 100.714 102.242 102.396l0.158 0.004h843.294c55.863-1.686 100.714-46.537 102.396-102.242l0.004-0.158v-108.424c-1.686-55.863-46.537-100.714-102.242-102.396l-0.158-0.004zM102.4 309.459c-0.682 0.103-1.47 0.162-2.271 0.162-8.816 0-15.962-7.147-15.962-15.962 0-0.801 0.059-1.588 0.173-2.358l-0.011 0.087v-108.424c-0.103-0.682-0.162-1.47-0.162-2.271 0-8.816 7.147-15.962 15.962-15.962 0.801 0 1.588 0.059 2.358 0.173l-0.087-0.011h843.294c0.682-0.103 1.47-0.162 2.271-0.162 8.816 0 15.962 7.147 15.962 15.962 0 0.801-0.059 1.588-0.173 2.358l0.011-0.087v108.424c0.103 0.682 0.162 1.47 0.162 2.271 0 8.816-7.147 15.962-15.962 15.962-0.801 0-1.588-0.059-2.358-0.173l0.087 0.011zM945.694 496.188h-843.294c-55.863 1.686-100.714 46.537-102.396 102.242l-0.004 0.158v108.424c1.686 55.863 46.537 100.714 102.242 102.396l0.158 0.004h843.294c55.863-1.686 100.714-46.537 102.396-102.242l0.004-0.158v-108.424c-1.686-55.863-46.537-100.714-102.242-102.396l-0.158-0.004zM102.4 725.082c-0.682 0.103-1.47 0.162-2.271 0.162-8.816 0-15.962-7.147-15.962-15.962 0-0.801 0.059-1.588 0.173-2.358l-0.011 0.087v-108.424c-0.103-0.682-0.162-1.47-0.162-2.271 0-8.816 7.147-15.962 15.962-15.962 0.801 0 1.588 0.059 2.358 0.173l-0.087-0.011h843.294c0.682-0.103 1.47-0.162 2.271-0.162 8.816 0 15.962 7.147 15.962 15.962 0 0.801-0.059 1.588-0.173 2.358l0.011-0.087v108.424c0.103 0.682 0.162 1.47 0.162 2.271 0 8.816-7.147 15.962-15.962 15.962-0.801 0-1.588-0.059-2.358-0.173l0.087 0.011h-843.294z" />
<glyph unicode="&#xe901;" glyph-name="agent" d="M80.842-64c-0.030 1.776-0.047 3.871-0.047 5.971 0 205.836 164.469 373.259 369.161 378.021l0.443 0.008h123.149c205.158-4.741 369.657-172.175 369.657-378.031 0-2.099-0.017-4.194-0.051-6.285l0.004 0.316zM240.963 64.054h548.217c-42.704 76.644-123.145 127.702-215.537 128h-117.101c-92.427-0.322-172.858-51.371-214.937-126.747l-0.642-1.253zM265.593 640.027v64.027c-0.020 1.173-0.031 2.557-0.031 3.943 0 137.233 109.668 248.852 246.145 251.998l0.293 0.005c136.77-3.151 246.438-114.77 246.438-252.003 0-1.387-0.011-2.77-0.034-4.152l0.003 0.208v-64.027c0.020-1.189 0.032-2.592 0.032-3.997 0-137.233-109.668-248.852-246.146-251.998l-0.293-0.005c-136.77 3.151-246.438 114.769-246.438 252.003 0 1.405 0.012 2.808 0.034 4.208l-0.003-0.211zM388.797 704.054v-64.027c-0.010-0.603-0.016-1.314-0.016-2.026 0-68.622 54.831-124.438 123.072-126.025l0.148-0.003c68.412 1.56 123.274 57.388 123.274 126.029 0 0.712-0.006 1.423-0.018 2.132l0.001-0.107v64.027c0.009 0.57 0.015 1.243 0.015 1.917 0 68.641-54.861 124.468-123.127 126.026l-0.145 0.003c-68.382-1.561-123.219-57.364-123.219-125.975 0-0.693 0.006-1.385 0.017-2.075l-0.001 0.104z" />
<glyph unicode="&#xe902;" glyph-name="Calendar" d="M128 640v-576h768v576zM832 832h128c1.085 0.069 2.352 0.109 3.629 0.109 33.402 0 60.48-27.078 60.48-60.48 0-1.277-0.040-2.544-0.118-3.801l0.009 0.172v-768c0.069-1.085 0.109-2.352 0.109-3.629 0-33.402-27.078-60.48-60.48-60.48-1.277 0-2.544 0.040-3.801 0.118l0.172-0.009h-896c-1.085-0.069-2.352-0.109-3.629-0.109-33.402 0-60.48 27.078-60.48 60.48 0 1.277 0.040 2.544 0.118 3.801l-0.009-0.172v768c-0.069 1.085-0.109 2.352-0.109 3.629 0 33.402 27.078 60.48 60.48 60.48 1.277 0 2.544-0.040 3.801-0.118l-0.172 0.009h128v64c-0.069 1.085-0.109 2.352-0.109 3.629 0 33.402 27.078 60.48 60.48 60.48 1.277 0 2.544-0.040 3.801-0.118l-0.172 0.009c1.085 0.069 2.352 0.109 3.629 0.109 33.402 0 60.48-27.078 60.48-60.48 0-1.277-0.040-2.544-0.118-3.801l0.009 0.172v-64h384v64c0 35.346 28.654 64 64 64s64-28.654 64-64v0zM768 192h-128v128h128zM576 192h-128v128h128zM768 384h-128v128h128zM576 384h-128v128h128zM384 192h-128v128h128z" />
<glyph unicode="&#xe903;" glyph-name="close" horiz-adv-x="1015" d="M1001.64 42.278l-354.446 345.060-55.969 55.969 410.414 410.414c6.564 10.239 10.463 22.732 10.463 36.135 0 37.352-30.28 67.632-67.632 67.632-13.404 0-25.896-3.899-36.406-10.625l0.271 0.162-345.060-354.446-55.969-55.969-56.038 55.969-345.060 354.446c-10.239 6.564-22.732 10.463-36.135 10.463-37.352 0-67.632-30.28-67.632-67.632 0-13.404 3.899-25.896 10.625-36.406l-0.162 0.271 410.414-410.414-55.969-55.969-354.446-345.060c-6.519-10.213-10.39-22.665-10.39-36.020 0-37.352 30.28-67.632 67.632-67.632 13.373 0 25.84 3.882 36.335 10.58l-0.273-0.163 401.029 401.029 401.029-401.029c10.239-6.564 22.732-10.463 36.135-10.463 37.352 0 67.632 30.28 67.632 67.632 0 13.404-3.899 25.896-10.625 36.406l0.162-0.271z" />
<glyph unicode="&#xe904;" glyph-name="construction_estate_icon" d="M273.869 428.493c-1.894 1.894-5.632 3.738-7.475 5.632-5.027 3.529-11.274 5.639-18.014 5.639-0.237 0-0.474-0.003-0.71-0.008l0.035 0.001h-31.795c-0.706 0.079-1.525 0.124-2.354 0.124-4.701 0-9.065-1.443-12.673-3.911l0.077 0.050c-3.738-1.894-9.37-3.738-11.213-7.475-1.894-1.894-3.738-5.632-5.632-7.475-3.529-5.027-5.639-11.274-5.639-18.014 0-0.237 0.003-0.474 0.008-0.71l-0.001 0.035v-31.795c-0.079-0.706-0.124-1.525-0.124-2.354 0-4.701 1.443-9.065 3.911-12.673l-0.050 0.077c1.894-3.738 3.738-9.37 7.475-11.213 1.894-1.894 5.632-3.738 7.475-5.632 5.027-3.529 11.274-5.639 18.014-5.639 0.237 0 0.474 0.003 0.71 0.008l-0.035-0.001h31.795c0.445-0.042 0.961-0.065 1.484-0.065 2.885 0 5.601 0.725 7.975 2.004l-0.090-0.044h1.894c3.738 1.894 7.475 1.894 9.37 3.738s5.632 3.738 7.475 5.632c2.279 2.091 4.165 4.566 5.565 7.329l0.067 0.146c0.215 1.477 0.899 2.765 1.893 3.736l0.001 0.001c0 1.894 1.894 3.738 1.894 5.632 0 3.738 1.894 5.632 1.894 9.37v31.693c0.079 0.706 0.124 1.525 0.124 2.354 0 4.701-1.443 9.065-3.911 12.673l0.050-0.077c-3.84 3.738-5.734 9.318-9.472 11.213zM425.267 428.493c-1.894 1.894-5.632 3.738-7.475 5.632-5.027 3.529-11.274 5.639-18.014 5.639-0.237 0-0.474-0.003-0.71-0.008l0.035 0.001h-31.795c-0.706 0.079-1.525 0.124-2.354 0.124-4.701 0-9.065-1.443-12.673-3.911l0.077 0.050c-3.738-1.894-9.37-3.738-11.213-7.475-1.894-1.894-3.738-5.632-5.632-7.475-3.529-5.027-5.639-11.274-5.639-18.014 0-0.237 0.003-0.474 0.008-0.71l-0.001 0.035v-31.795c-0.079-0.706-0.124-1.525-0.124-2.354 0-4.701 1.443-9.065 3.911-12.673l-0.050 0.077c1.894-3.738 3.738-9.37 7.475-11.213 1.894-1.894 5.632-3.738 7.475-5.632 5.027-3.529 11.274-5.639 18.014-5.639 0.237 0 0.474 0.003 0.71 0.008l-0.035-0.001h31.795c0.445-0.042 0.961-0.065 1.484-0.065 2.885 0 5.601 0.725 7.975 2.004l-0.090-0.044h1.894c3.738 1.894 7.475 1.894 9.37 3.738s5.632 3.738 7.475 5.632c2.279 2.091 4.165 4.566 5.565 7.329l0.067 0.146c0.215 1.477 0.899 2.765 1.893 3.736l0.001 0.001c0 1.894 1.894 3.738 1.894 5.632 0 3.738 1.894 5.632 1.894 9.37v31.693c0.079 0.706 0.124 1.525 0.124 2.354 0 4.701-1.443 9.065-3.911 12.673l0.050-0.077c-3.84 3.738-5.734 9.318-9.472 11.213zM692.582 297.626c-1.894 1.894-5.632 3.738-7.475 5.632-5.027 3.529-11.274 5.639-18.014 5.639-0.237 0-0.474-0.003-0.71-0.008l0.035 0.001h-31.795c-0.706 0.079-1.525 0.124-2.354 0.124-4.701 0-9.065-1.443-12.673-3.911l0.077 0.050c-3.738-1.894-9.37-3.738-11.213-7.475-1.894-1.894-3.738-5.632-5.632-7.475-3.529-5.027-5.639-11.274-5.639-18.014 0-0.237 0.003-0.474 0.008-0.71l-0.001 0.035v-31.795c-0.079-0.706-0.124-1.525-0.124-2.354 0-4.701 1.443-9.065 3.911-12.673l-0.050 0.077c1.894-3.738 3.738-9.37 7.475-11.213 1.894-1.894 5.632-3.738 7.475-5.632 5.027-3.529 11.274-5.639 18.014-5.639 0.237 0 0.474 0.003 0.71 0.008l-0.035-0.001h31.795c0.445-0.042 0.961-0.065 1.484-0.065 2.885 0 5.601 0.725 7.975 2.004l-0.090-0.044h1.894c3.738 1.894 7.475 1.894 9.37 3.738s5.632 3.738 7.475 5.632c2.279 2.091 4.165 4.566 5.565 7.329l0.067 0.146c0.215 1.477 0.899 2.765 1.893 3.736l0.001 0.001c0 1.894 1.894 3.738 1.894 5.632 0 3.738 1.894 5.632 1.894 9.37v31.693c0.079 0.706 0.124 1.525 0.124 2.354 0 4.701-1.443 9.065-3.911 12.673l0.050-0.077c-3.84 3.738-5.734 7.475-9.472 11.213zM851.507 297.626c-1.894 1.894-5.632 3.738-7.475 5.632-5.027 3.529-11.274 5.639-18.014 5.639-0.237 0-0.474-0.003-0.71-0.008l0.035 0.001h-31.795c-0.706 0.079-1.525 0.124-2.354 0.124-4.701 0-9.065-1.443-12.673-3.911l0.077 0.050c-3.738-1.894-9.37-3.738-11.213-7.475-1.894-1.894-3.738-5.632-5.632-7.475-3.529-5.027-5.639-11.274-5.639-18.014 0-0.237 0.003-0.474 0.008-0.71l-0.001 0.035v-31.795c-0.079-0.706-0.124-1.525-0.124-2.354 0-4.701 1.443-9.065 3.911-12.673l-0.050 0.077c1.894-3.738 3.738-9.37 7.475-11.213 1.894-1.894 5.632-3.738 7.475-5.632 5.027-3.529 11.274-5.639 18.014-5.639 0.237 0 0.474 0.003 0.71 0.008l-0.035-0.001h31.795c0.445-0.042 0.961-0.065 1.484-0.065 2.885 0 5.601 0.725 7.975 2.004l-0.090-0.044h1.894c3.738 1.894 7.475 1.894 9.37 3.738s5.632 3.738 7.475 5.632c2.279 2.091 4.165 4.566 5.565 7.329l0.067 0.146c0.215 1.477 0.899 2.765 1.893 3.736l0.001 0.001c0 1.894 1.894 3.738 1.894 5.632 0 3.738 1.894 5.632 1.894 9.37v31.693c0.079 0.706 0.124 1.525 0.124 2.354 0 4.701-1.443 9.065-3.911 12.673l0.050-0.077c-3.84 3.738-5.734 7.475-9.472 11.213zM851.507 164.915c-1.894 1.894-5.632 3.738-7.475 5.632-5.027 3.529-11.274 5.639-18.014 5.639-0.237 0-0.474-0.003-0.71-0.008l0.035 0.001h-31.795c-0.706 0.079-1.525 0.124-2.354 0.124-4.701 0-9.065-1.443-12.673-3.911l0.077 0.050c-3.738-1.894-9.37-3.738-11.213-7.475-1.894-1.894-3.738-5.632-5.632-7.475-3.529-5.027-5.639-11.274-5.639-18.014 0-0.237 0.003-0.474 0.008-0.71l-0.001 0.035v-31.795c-0.079-0.706-0.124-1.525-0.124-2.354 0-4.701 1.443-9.065 3.911-12.673l-0.050 0.077c1.894-3.738 3.738-9.37 7.475-11.213 1.894-1.894 5.632-3.738 7.475-5.632 5.027-3.529 11.274-5.639 18.014-5.639 0.237 0 0.474 0.003 0.71 0.008l-0.035-0.001h31.795c0.445-0.042 0.961-0.065 1.484-0.065 2.885 0 5.601 0.725 7.975 2.004l-0.090-0.044h1.894c3.738 1.894 7.475 1.894 9.37 3.738s5.632 3.738 7.475 5.632c2.279 2.091 4.165 4.566 5.565 7.329l0.067 0.146c0.215 1.477 0.899 2.765 1.893 3.736l0.001 0.001c0 1.894 1.894 3.738 1.894 5.632 0 3.738 1.894 5.632 1.894 9.37v31.693c0.079 0.706 0.124 1.525 0.124 2.354 0 4.701-1.443 9.065-3.911 12.673l0.050-0.077c-3.84 3.738-5.734 7.475-9.472 11.213zM690.739 168.653c-1.894 1.894-5.632 3.738-7.475 5.632-5.027 3.529-11.274 5.639-18.014 5.639-0.237 0-0.474-0.003-0.71-0.008l0.035 0.001h-31.795c-0.706 0.079-1.525 0.124-2.354 0.124-4.701 0-9.065-1.443-12.673-3.911l0.077 0.050c-3.738-1.894-9.37-3.738-11.213-7.475-1.894-1.894-3.738-5.632-5.632-7.475-3.529-5.027-5.639-11.274-5.639-18.014 0-0.237 0.003-0.474 0.008-0.71l-0.001 0.035v-31.795c-0.079-0.706-0.124-1.525-0.124-2.354 0-4.701 1.443-9.065 3.911-12.673l-0.050 0.077c1.894-3.738 3.738-9.37 7.475-11.213 1.894-1.894 5.632-3.738 7.475-5.632 5.027-3.529 11.274-5.639 18.014-5.639 0.237 0 0.474 0.003 0.71 0.008l-0.035-0.001h31.795c0.445-0.042 0.961-0.065 1.484-0.065 2.885 0 5.601 0.725 7.975 2.004l-0.090-0.044h1.894c3.738 1.894 7.475 1.894 9.37 3.738s5.632 3.738 7.475 5.632c2.279 2.091 4.165 4.566 5.565 7.329l0.067 0.146c0.215 1.477 0.899 2.765 1.893 3.736l0.001 0.001c0 1.894 1.894 3.738 1.894 5.632 0 3.738 1.894 5.632 1.894 9.37v31.693c0.079 0.706 0.124 1.525 0.124 2.354 0 4.701-1.443 9.065-3.911 12.673l0.050-0.077c-3.84 3.738-5.734 7.475-9.472 11.213zM614.093 572.416c1.894-1.894 5.632-3.738 7.475-5.632 5.027-3.529 11.274-5.639 18.014-5.639 0.237 0 0.474 0.003 0.71 0.008l-0.035-0.001h31.795c0.445-0.042 0.961-0.065 1.484-0.065 2.885 0 5.601 0.725 7.975 2.004l-0.090-0.044h1.894c3.738 1.894 7.475 1.894 9.37 3.738s5.632 3.738 7.475 5.632c2.279 2.091 4.165 4.566 5.565 7.329l0.067 0.146c0.215 1.477 0.899 2.765 1.893 3.736l0.001 0.001c0 1.894 1.894 3.738 1.894 5.632 0 3.738 1.894 5.632 1.894 9.37v31.744c0.079 0.706 0.124 1.525 0.124 2.354 0 4.701-1.443 9.065-3.911 12.673l0.050-0.077c-1.894 3.738-3.738 9.37-7.475 11.213-1.894 1.894-5.632 3.738-7.475 5.632-5.027 3.529-11.274 5.639-18.014 5.639-0.237 0-0.474-0.003-0.71-0.008l0.035 0.001h-32c-0.706 0.079-1.525 0.124-2.354 0.124-4.701 0-9.065-1.443-12.673-3.911l0.077 0.050c-3.738-1.894-9.37-3.738-11.213-7.475-1.894-1.894-3.738-5.632-5.632-7.475-3.529-5.027-5.639-11.274-5.639-18.014 0-0.237 0.003-0.474 0.008-0.71l-0.001 0.035v-31.795c-0.079-0.706-0.124-1.525-0.124-2.354 0-4.701 1.443-9.065 3.911-12.673l-0.050 0.077c0.312-4.529 2.443-8.506 5.66-11.245l0.023-0.019zM458.957 572.416c1.894-1.894 5.632-3.738 7.475-5.632 5.027-3.529 11.274-5.639 18.014-5.639 0.237 0 0.474 0.003 0.71 0.008l-0.035-0.001h31.795c0.445-0.042 0.961-0.065 1.484-0.065 2.885 0 5.601 0.725 7.975 2.004l-0.090-0.044h1.894c3.738 1.894 7.475 1.894 9.37 3.738s5.632 3.738 7.475 5.632c2.279 2.091 4.165 4.566 5.565 7.329l0.067 0.146c0.215 1.477 0.899 2.765 1.893 3.736l0.001 0.001c0 1.894 1.894 3.738 1.894 5.632 0 3.738 1.894 5.632 1.894 9.37v31.744c0.079 0.706 0.124 1.525 0.124 2.354 0 4.701-1.443 9.065-3.911 12.673l0.050-0.077c-1.894 3.738-3.738 9.37-7.475 11.213-1.894 1.894-5.632 3.738-7.475 5.632-5.027 3.529-11.274 5.639-18.014 5.639-0.237 0-0.474-0.003-0.71-0.008l0.035 0.001h-32c-0.706 0.079-1.525 0.124-2.354 0.124-4.701 0-9.065-1.443-12.673-3.911l0.077 0.050c-3.738-1.894-9.37-3.738-11.213-7.475-1.894-1.894-3.738-5.632-5.632-7.475-3.529-5.027-5.639-11.274-5.639-18.014 0-0.237 0.003-0.474 0.008-0.71l-0.001 0.035v-31.795c-0.079-0.706-0.124-1.525-0.124-2.354 0-4.701 1.443-9.065 3.911-12.673l-0.050 0.077c-1.792-3.789 1.946-9.421 5.683-11.264zM425.267 297.626c-1.894 1.894-5.632 3.738-7.475 5.632-5.027 3.529-11.274 5.639-18.014 5.639-0.237 0-0.474-0.003-0.71-0.008l0.035 0.001h-31.795c-0.706 0.079-1.525 0.124-2.354 0.124-4.701 0-9.065-1.443-12.673-3.911l0.077 0.050c-3.738-1.894-9.37-3.738-11.213-7.475-1.894-1.894-3.738-5.632-5.632-7.475-3.529-5.027-5.639-11.274-5.639-18.014 0-0.237 0.003-0.474 0.008-0.71l-0.001 0.035v-31.795c-0.079-0.706-0.124-1.525-0.124-2.354 0-4.701 1.443-9.065 3.911-12.673l-0.050 0.077c1.894-3.738 3.738-9.37 7.475-11.213 1.894-1.894 5.632-3.738 7.475-5.632 5.027-3.529 11.274-5.639 18.014-5.639 0.237 0 0.474 0.003 0.71 0.008l-0.035-0.001h31.795c0.445-0.042 0.961-0.065 1.484-0.065 2.885 0 5.601 0.725 7.975 2.004l-0.090-0.044h1.894c3.738 1.894 7.475 1.894 9.37 3.738s5.632 3.738 7.475 5.632c2.279 2.091 4.165 4.566 5.565 7.329l0.067 0.146c0.215 1.477 0.899 2.765 1.893 3.736l0.001 0.001c0 1.894 1.894 3.738 1.894 5.632 0 3.738 1.894 5.632 1.894 9.37v31.693c0.079 0.706 0.124 1.525 0.124 2.354 0 4.701-1.443 9.065-3.911 12.673l0.050-0.077c-3.84 3.738-5.734 7.475-9.472 11.213zM423.424 164.915c-1.894 1.894-5.632 3.738-7.475 5.632-5.027 3.529-11.274 5.639-18.014 5.639-0.237 0-0.474-0.003-0.71-0.008l0.035 0.001h-31.795c-0.706 0.079-1.525 0.124-2.354 0.124-4.701 0-9.065-1.443-12.673-3.911l0.077 0.050c-3.738-1.894-9.37-3.738-11.213-7.475-1.894-1.894-3.738-5.632-5.632-7.475-3.529-5.027-5.639-11.274-5.639-18.014 0-0.237 0.003-0.474 0.008-0.71l-0.001 0.035v-31.795c-0.079-0.706-0.124-1.525-0.124-2.354 0-4.701 1.443-9.065 3.911-12.673l-0.050 0.077c1.894-3.738 3.738-9.37 7.475-11.213 1.894-1.894 5.632-3.738 7.475-5.632 5.027-3.529 11.274-5.639 18.014-5.639 0.237 0 0.474 0.003 0.71 0.008l-0.035-0.001h31.795c0.445-0.042 0.961-0.065 1.484-0.065 2.885 0 5.601 0.725 7.975 2.004l-0.090-0.044h1.894c3.738 1.894 7.475 1.894 9.37 3.738s5.632 3.738 7.475 5.632c2.279 2.091 4.165 4.566 5.565 7.329l0.067 0.146c0.215 1.477 0.899 2.765 1.893 3.736l0.001 0.001c0 1.894 1.894 3.738 1.894 5.632 0 3.738 1.894 5.632 1.894 9.37v31.693c0.079 0.706 0.124 1.525 0.124 2.354 0 4.701-1.443 9.065-3.911 12.673l0.050-0.077c-3.84 3.738-5.734 7.475-9.472 11.213zM273.869 163.021c-1.894 1.894-5.632 3.738-7.475 5.632-5.027 3.529-11.274 5.639-18.014 5.639-0.237 0-0.474-0.003-0.71-0.008l0.035 0.001h-31.795c-0.706 0.079-1.525 0.124-2.354 0.124-4.701 0-9.065-1.443-12.673-3.911l0.077 0.050c-3.738-1.894-9.37-3.738-11.213-7.475-1.894-1.894-3.738-5.632-5.632-7.475-3.529-5.027-5.639-11.274-5.639-18.014 0-0.237 0.003-0.474 0.008-0.71l-0.001 0.035v-31.795c-0.079-0.706-0.124-1.525-0.124-2.354 0-4.701 1.443-9.065 3.911-12.673l-0.050 0.077c1.894-3.738 3.738-9.37 7.475-11.213 1.894-1.894 5.632-3.738 7.475-5.632 5.027-3.529 11.274-5.639 18.014-5.639 0.237 0 0.474 0.003 0.71 0.008l-0.035-0.001h31.795c0.445-0.042 0.961-0.065 1.484-0.065 2.885 0 5.601 0.725 7.975 2.004l-0.090-0.044h1.894c3.738 1.894 7.475 1.894 9.37 3.738s5.632 3.738 7.475 5.632c2.279 2.091 4.165 4.566 5.565 7.329l0.067 0.146c0.215 1.477 0.899 2.765 1.893 3.736l0.001 0.001c0 1.894 1.894 3.738 1.894 5.632 0 3.738 1.894 5.632 1.894 9.37v31.693c0.079 0.706 0.124 1.525 0.124 2.354 0 4.701-1.443 9.065-3.911 12.673l0.050-0.077c-3.84 3.738-5.734 9.318-9.472 11.213zM273.869 297.626c-1.894 1.894-5.632 3.738-7.475 5.632-5.027 3.529-11.274 5.639-18.014 5.639-0.237 0-0.474-0.003-0.71-0.008l0.035 0.001h-31.795c-0.706 0.079-1.525 0.124-2.354 0.124-4.701 0-9.065-1.443-12.673-3.911l0.077 0.050c-3.738-1.894-9.37-3.738-11.213-7.475-1.894-1.894-3.738-5.632-5.632-7.475-3.529-5.027-5.639-11.274-5.639-18.014 0-0.237 0.003-0.474 0.008-0.71l-0.001 0.035v-31.795c-0.079-0.706-0.124-1.525-0.124-2.354 0-4.701 1.443-9.065 3.911-12.673l-0.050 0.077c1.894-3.738 3.738-9.37 7.475-11.213 1.894-1.894 5.632-3.738 7.475-5.632 5.027-3.529 11.274-5.639 18.014-5.639 0.237 0 0.474 0.003 0.71 0.008l-0.035-0.001h31.795c0.445-0.042 0.961-0.065 1.484-0.065 2.885 0 5.601 0.725 7.975 2.004l-0.090-0.044h1.894c3.738 1.894 7.475 1.894 9.37 3.738s5.632 3.738 7.475 5.632c2.279 2.091 4.165 4.566 5.565 7.329l0.067 0.146c0.215 1.477 0.899 2.765 1.893 3.736l0.001 0.001c0 1.894 1.894 3.738 1.894 5.632 0 3.738 1.894 5.632 1.894 9.37v31.693c0.079 0.706 0.124 1.525 0.124 2.354 0 4.701-1.443 9.065-3.911 12.673l0.050-0.077c-3.84 3.738-5.734 7.475-9.472 11.213zM993.587 52.736h-14.95v233.677c0 29.901 1.894 61.44 0 91.597-0.291 38.131-25.908 70.201-60.846 80.238l-0.594 0.146c-7.89 1.595-16.96 2.508-26.243 2.508-4.587 0-9.122-0.223-13.595-0.659l0.568 0.045h-48.589v168.192c0.432 3.595 0.679 7.759 0.679 11.98 0 26.138-9.453 50.068-25.126 68.558l0.127-0.154c-20.48 22.426-43.008 43.008-65.434 65.434l-88.115 87.859c-24.32 24.32-46.746 54.221-86.016 44.851-24.32-5.632-46.746-35.533-65.434-54.221l-89.754-89.754c-20.48-20.48-44.851-40.96-63.539-63.539-10.077-11.461-16.379-26.456-16.843-42.913l-0.002-0.095c-52.326 22.426-95.334-37.376-127.13-69.171l-117.76-117.76c-17.167-13.905-28.456-34.484-29.89-57.73l-0.011-0.228v-358.912h-18.637c-20.642 0-37.376-16.734-37.376-37.376s16.734-37.376 37.376-37.376v0h957.133c20.656 0 37.402 16.745 37.402 37.402s-16.745 37.402-37.402 37.402v0zM589.824 836.096v0c3.686 5.53 7.424 1.792-0.051-0.102zM415.744 662.016l151.45 151.45c4.869 3.94 9.167 8.238 12.98 12.946l0.127 0.162c5.632-5.632 11.213-9.37 14.95-13.107l80.384-80.384 69.325-69.069c1.894-1.894 5.632-3.738 7.475-7.475l1.894-1.894c0.443-3.076 0.696-6.629 0.696-10.24s-0.253-7.164-0.742-10.64l0.046 0.4v-174.080h-151.45c-3.471 0.187-7.535 0.293-11.623 0.293-18.412 0-36.319-2.16-53.482-6.239l1.566 0.314c-1.894 1.894-1.894 3.738-3.738 5.632-31.795 33.638-65.434 65.434-99.072 99.072l-29.901 29.901v60.006c3.113 4.994 6.184 9.27 9.501 13.338l-0.182-0.231zM479.283 411.546c-1.894 3.738 1.894 3.738 0 0zM129.69 409.651c0 3.738 1.894 1.894 0 0zM156.16 52.736h-26.214v357.069c9.274 8.35 17.812 16.889 25.888 25.853l0.275 0.31 149.606 149.555c1.894-1.894 3.738-3.738 5.632-3.738l168.243-168.243v-1.894c-0.894-5.341-1.405-11.494-1.405-17.766s0.511-12.426 1.494-18.42l-0.088 0.654c-0.451-8.41-0.707-18.255-0.707-28.16s0.257-19.75 0.764-29.529l-0.057 1.369v-267.315zM670.259 52.736h-115.968v327.117c3.738 11.213 16.845 7.475 29.901 7.475h263.578c11.213 0 50.483 7.475 54.221-7.475 0.448-3.367 0.703-7.26 0.703-11.213s-0.256-7.846-0.751-11.664l0.048 0.451v-304.691z" />
<glyph unicode="&#xe905;" glyph-name="edit" d="M924.808 81.837c0-0.002 0-0.005 0-0.008 0-48.122-38.673-87.211-86.635-87.883l-0.063-0.001h-693.653c-48.025 0.673-86.699 39.762-86.699 87.884 0 0.003 0 0.006 0 0.009v0 693.59c0.174 47.126 38.418 85.262 85.568 85.262 0.398 0 0.794-0.003 1.191-0.008l-0.060 0.001h404.553v57.757h-404.553c-0.28 0.002-0.611 0.003-0.942 0.003-79.095 0-143.239-64.013-143.451-143.058v-693.548c0-0.021 0-0.045 0-0.070 0-80.036 64.473-145.014 144.316-145.83l0.077-0.001h693.528c79.928 0.852 144.393 65.844 144.393 145.892 0 0.003 0 0.006 0 0.008v-0.001 403.171h-57.569v-403.171zM989.848 927.229c-21.19 20.21-49.95 32.645-81.614 32.645s-60.423-12.436-81.661-32.69l0.047 0.044-387.916-387.665c-3.599-3.601-6.251-8.147-7.553-13.235l-0.043-0.2-40.807-163.227c-0.552-2.111-0.869-4.534-0.869-7.031 0-15.946 12.924-28.873 28.868-28.879h0.001c0.016 0 0.036 0 0.055 0 2.479 0 4.883 0.321 7.172 0.923l-0.196-0.044 163.227 40.87c5.292 1.329 9.842 3.985 13.434 7.595l387.666 387.666c20.864 20.897 33.766 49.749 33.766 81.614s-12.902 60.716-33.767 81.615l0.001-0.001zM567.026 422.668l-108.986-27.246 27.246 108.986 320.679 320.679 81.614-81.614zM948.978 804.683l-20.403-20.403-81.614 81.614 20.403 20.403c10.598 10.098 24.977 16.311 40.807 16.311s30.209-6.213 40.831-16.333l-0.024 0.023c10.432-10.449 16.883-24.874 16.883-40.807s-6.451-30.358-16.884-40.808l0.001 0.001z" />
<glyph unicode="&#xe906;" glyph-name="flag_check" d="M826.745 960h-654.929c-50.515-1.26-90.984-42.509-90.984-93.211 0-0.483 0.004-0.966 0.011-1.447l-0.001 0.073v-600.657c-0.016-0.636-0.025-1.386-0.025-2.138 0-32.81 17.307-61.577 43.289-77.671l0.391-0.225 360.232-240.155c5.12-3.42 11.417-5.458 18.189-5.458s13.069 2.038 18.31 5.534l-0.121-0.076 360.232 240.155c24.65 18.796 41.093 47.27 43.631 79.65l0.024 0.384v600.657c-5.206 51.26-46.577 91.369-97.949 94.57l-0.301 0.015zM393.755 272.303l-207.387 207.387c-3.377 3.208-5.477 7.732-5.477 12.746s2.1 9.538 5.47 12.739l0.008 0.007 39.99 39.828c3.208 3.377 7.732 5.477 12.746 5.477s9.538-2.1 12.739-5.47l0.007-0.008 156.295-156.295 342.016 342.016c3.665 10.779 14.552 10.779 21.827 3.665l40.044-40.044c3.377-3.208 5.477-7.732 5.477-12.746s-2.1-9.538-5.47-12.739l-0.008-0.007-392.785-396.557c-3.208-3.377-7.732-5.477-12.746-5.477s-9.538 2.1-12.739 5.47l-0.007 0.008z" />
<glyph unicode="&#xe907;" glyph-name="gem_diamond_icon" d="M995.607 567.389l-204.195 301.987c-8.844 12.338-22.989 20.391-39.034 20.805l-0.064 0.001h-504.413c-15.512-0.515-29.045-8.544-37.131-20.547l-0.105-0.166-202.566-302.033c-5.093-7.408-8.133-16.571-8.133-26.445 0-12.492 4.868-23.847 12.81-32.273l-0.022 0.023 453.911-483.421c8.619-9.138 20.809-14.827 34.327-14.827s25.708 5.689 34.306 14.804l0.022 0.023 455.54 483.421c7.972 8.386 12.876 19.754 12.876 32.268 0 9.851-3.039 18.993-8.231 26.538l0.103-0.158zM749.382 763.392l124.881-187.345h-275.084zM500.969 601.6l-153.926 194.327h307.665zM252.556 763.345l148.48-187.345h-275.037zM500.969 126.371l-335.127 355.421h670.161z" />
<glyph unicode="&#xe908;" glyph-name="grid" d="M664.935-63.938c-66.547 1.696-120.053 55.202-121.745 121.589l-0.003 0.159v237.254c1.696 66.547 55.202 120.053 121.589 121.745l0.159 0.003h237.254c66.547-1.696 120.053-55.202 121.745-121.589l0.003-0.159v-237.254c-1.696-66.547-55.202-120.053-121.589-121.745l-0.159-0.003zM661.813 298.187c-0.047-0.431-0.075-0.93-0.075-1.436s0.027-1.005 0.080-1.497l-0.005 0.061v-237.254c-0.047-0.431-0.074-0.93-0.074-1.436s0.027-1.005 0.080-1.497l-0.005 0.061c0.431-0.048 0.93-0.076 1.436-0.076s1.005 0.028 1.497 0.081l-0.061-0.005h237.254c0.431-0.053 0.93-0.083 1.436-0.083s1.005 0.030 1.495 0.089l-0.059-0.006c0.066 0.432 0.103 0.929 0.103 1.436s-0.037 1.005-0.11 1.491l0.007-0.055v237.254c0.066 0.432 0.104 0.929 0.104 1.436s-0.038 1.004-0.11 1.491l0.007-0.055c-0.431 0.053-0.93 0.083-1.436 0.083s-1.005-0.030-1.495-0.089l0.059 0.006h-237.254c-0.431 0.048-0.93 0.076-1.436 0.076s-1.005-0.028-1.497-0.081l0.061 0.005zM121.749-63.938c-66.547 1.696-120.053 55.202-121.745 121.589l-0.003 0.159v237.254c1.696 66.547 55.202 120.053 121.589 121.745l0.159 0.003h237.254c66.568-1.697 120.087-55.238 121.746-121.655l0.003-0.156v-237.254c-1.729-66.52-55.223-119.992-121.589-121.683l-0.159-0.003zM118.627 298.187c-0.066-0.432-0.104-0.929-0.104-1.436s0.038-1.004 0.11-1.491l-0.007 0.055v-237.254c-0.066-0.432-0.103-0.929-0.103-1.436s0.037-1.005 0.11-1.491l-0.007 0.055c0.431-0.053 0.93-0.083 1.436-0.083s1.005 0.030 1.495 0.089l-0.059-0.006h237.254c0.431-0.048 0.93-0.076 1.436-0.076s1.005 0.028 1.497 0.081l-0.061-0.005c0.047 0.431 0.074 0.93 0.074 1.436s-0.027 1.005-0.080 1.497l0.005-0.061v237.254c0.047 0.431 0.075 0.93 0.075 1.436s-0.027 1.005-0.080 1.497l0.005-0.061c-0.431 0.048-0.93 0.076-1.436 0.076s-1.005-0.028-1.497-0.081l0.061 0.005h-237.004c-0.469 0.062-1.011 0.098-1.561 0.098s-1.092-0.036-1.624-0.105l0.063 0.007zM664.685 479.249c-66.44 1.83-119.809 55.286-121.496 121.59l-0.003 0.159v237.254c1.697 66.568 55.238 120.087 121.655 121.746l0.156 0.003h237.254c66.52-1.729 119.992-55.223 121.683-121.589l0.003-0.159v-237.254c-1.696-66.547-55.202-120.053-121.589-121.745l-0.159-0.003zM661.813 841.373c-0.066-0.432-0.104-0.929-0.104-1.436s0.038-1.004 0.11-1.491l-0.007 0.055v-237.254c-0.066-0.432-0.104-0.929-0.104-1.436s0.038-1.004 0.11-1.491l-0.007 0.055c0.431-0.053 0.93-0.083 1.436-0.083s1.005 0.030 1.495 0.089l-0.059-0.006h237.254c0.431-0.048 0.93-0.076 1.436-0.076s1.005 0.028 1.497 0.081l-0.061-0.005c0.047 0.431 0.074 0.93 0.074 1.436s-0.027 1.005-0.080 1.497l0.005-0.061v237.004c0.047 0.431 0.075 0.93 0.075 1.436s-0.027 1.005-0.080 1.497l0.005-0.061c-0.431 0.048-0.93 0.076-1.436 0.076s-1.005-0.028-1.497-0.081l0.061 0.005h-237.254c-0.755 0.162-1.622 0.255-2.511 0.255-0.127 0-0.254-0.002-0.38-0.006h0.018zM121.749 479.249c-66.547 1.696-120.053 55.202-121.745 121.589l-0.003 0.159v237.254c1.696 66.547 55.202 120.053 121.589 121.745l0.159 0.003h237.254c66.547-1.696 120.053-55.202 121.745-121.589l0.003-0.159v-237.254c-1.696-66.547-55.202-120.053-121.589-121.745l-0.159-0.003zM118.627 841.373c-0.064-0.431-0.101-0.929-0.101-1.436s0.037-1.005 0.107-1.492l-0.007 0.056v-237.254c-0.066-0.432-0.104-0.929-0.104-1.436s0.038-1.004 0.11-1.491l-0.007 0.055c0.431-0.053 0.93-0.083 1.436-0.083s1.005 0.030 1.495 0.089l-0.059-0.006h237.254c0.431-0.048 0.93-0.076 1.436-0.076s1.005 0.028 1.497 0.081l-0.061-0.005c0.047 0.431 0.074 0.93 0.074 1.436s-0.027 1.005-0.080 1.497l0.005-0.061v237.004c0.046 0.431 0.072 0.93 0.072 1.436s-0.026 1.005-0.077 1.498l0.005-0.062c-0.431 0.044-0.93 0.070-1.436 0.070s-1.005-0.025-1.498-0.075l0.062 0.005h-237.004c-0.801 0.164-1.722 0.257-2.664 0.257-0.161 0-0.321-0.003-0.481-0.008l0.023 0.001z" />
<glyph unicode="&#xe909;" glyph-name="house" d="M997.184 628.096l-448 320c-10.326 7.447-23.234 11.91-37.184 11.91s-26.858-4.463-37.373-12.040l0.189 0.13-448-320c-16.32-11.751-26.821-30.697-26.821-52.096 0-35.349 28.656-64.005 64.005-64.005 13.95 0 26.858 4.463 37.373 12.039l-0.189-0.13 26.816 19.136v-543.040c0-35.346 28.654-64 64-64v0h640c35.346 0 64 28.654 64 64v0 543.040c16.708-16.681 38.815-27.959 63.474-30.987l0.526-0.053c0.022 0 0.047 0 0.073 0 35.346 0 64 28.654 64 64 0 21.4-10.503 40.346-26.635 51.966l-0.19 0.13zM768 64h-128v192c0 70.692-57.308 128-128 128s-128-57.308-128-128v0-192h-128v570.496l256 182.848 256-182.848z" />
<glyph unicode="&#xe90a;" glyph-name="ic_expand_more_24px" d="M903.68 777.143l-391.68-390.802-391.68 390.802-120.32-120.32 512-512 512 512z" />
<glyph unicode="&#xe90b;" glyph-name="image" d="M779.013-64h-534.026c-135.046 0.637-244.351 109.941-244.987 244.926v534.087c0.637 135.046 109.941 244.351 244.926 244.987h534.087c135.046-0.637 244.351-109.941 244.987-244.926v-535.214c-1.551-67.092-29.109-127.46-72.944-171.662l0.017 0.017c-43.715-44.581-104.571-72.215-171.882-72.215-0.063 0-0.125 0-0.188 0h0.010zM244.987 869.879c-85.062-1.153-153.713-69.804-154.865-154.757l-0.001-0.109v-534.026c1.153-85.062 69.804-153.713 154.757-154.865l0.109-0.001h534.026c84.94 1.953 153.247 70.467 154.864 155.305l0.002 0.154v533.611c-1.153 85.062-69.804 153.713-154.757 154.865l-0.109 0.001zM766.266 606.394c0-45.778-37.11-82.888-82.888-82.888s-82.888 37.11-82.888 82.888c0 45.778 37.11 82.888 82.888 82.888s82.888-37.11 82.888-82.888zM813.876 215.731l-64.863 108.145-68.599 115.379c-5.244 9.755-15.379 16.275-27.036 16.275s-21.792-6.52-26.956-16.113l-0.080-0.163-43.223-75.714-10.791 17.787-104.529 176.625c-5.244 9.755-15.379 16.275-27.036 16.275s-21.792-6.52-26.956-16.113l-0.080-0.163-104.529-176.625-100.793-169.392c-3.876-5.489-6.195-12.319-6.195-19.69 0-18.992 15.396-34.388 34.388-34.388 0.219 0 0.437 0.002 0.654 0.006h543.954c20.995 0.376 37.87 17.484 37.87 38.533 0 7.121-1.931 13.791-5.299 19.515l0.098-0.181z" />
<glyph unicode="&#xe90c;" glyph-name="incr" d="M512-29.901l409.6 409.6h-819.2zM102.4 550.4h819.2l-409.6 409.6z" />
<glyph unicode="&#xe90d;" glyph-name="location_near_pin_icon" d="M499.81 82.286c-10.81 0.008-20.304 5.634-25.722 14.116l-0.073 0.123c-22.333 35.499-218.014 350.306-218.014 473.381 0 134.652 109.157 243.81 243.81 243.81s243.81-109.157 243.81-243.81v0c0-123.075-195.682-437.882-218.014-473.381-5.491-8.605-14.985-14.23-25.794-14.238h-0.001zM499.81 752.762c-100.945-0.111-182.746-81.913-182.857-182.847v-0.011c0-78.019 115.127-286.135 182.857-398.824 67.73 112.689 182.857 320.805 182.857 398.824-0.111 100.945-81.913 182.746-182.847 182.857h-0.011zM499.81 569.905c-33.663 0-60.952 27.289-60.952 60.952s27.289 60.952 60.952 60.952c33.663 0 60.952-27.289 60.952-60.952v0c-0.028-33.652-27.3-60.925-60.95-60.952h-0.003zM591.238 447.951h-60.952v42.13l-30.476 15.214-30.476-15.262v-42.082h-60.952v60.952c0.017 11.865 6.801 22.141 16.698 27.178l0.173 0.080 60.952 30.476c3.971 2.029 8.661 3.217 13.629 3.217s9.658-1.189 13.802-3.297l-0.173 0.080 60.952-30.476c10.051-5.13 16.815-15.403 16.823-27.257v-0.001zM835.048 82.286c-0.002 0-0.004 0-0.006 0-10.351 0-19.495 5.169-24.992 13.066l-0.066 0.1c-16.189 23.357-96.841 143.067-96.841 200.168 0 67.326 54.579 121.905 121.905 121.905s121.905-54.579 121.905-121.905v0c0-57.1-80.652-176.811-96.841-199.924-5.516-8.094-14.669-13.353-25.055-13.409h-0.009zM835.048 356.571c-33.652-0.028-60.925-27.3-60.952-60.95v-0.003c13.762-48.569 34.631-90.979 61.772-128.559l-0.82 1.193c26.309 36.39 47.176 78.798 60.25 124.497l0.702 2.87c-0.028 33.652-27.3 60.925-60.95 60.952h-0.003zM164.571 82.286c-0.002 0-0.004 0-0.006 0-10.351 0-19.495 5.169-24.992 13.066l-0.066 0.1c-16.189 23.357-96.841 143.067-96.841 200.168 0 67.326 54.579 121.905 121.905 121.905s121.905-54.579 121.905-121.905v0c0-57.1-80.652-176.811-96.841-199.924-5.516-8.094-14.669-13.353-25.055-13.409h-0.009zM164.571 356.571c-33.652-0.028-60.925-27.3-60.952-60.95v-0.003c13.762-48.569 34.631-90.979 61.772-128.559l-0.82 1.193c26.309 36.39 47.176 78.798 60.25 124.497l0.702 2.87c-0.028 33.652-27.3 60.925-60.95 60.952h-0.003zM12.19 9.143h975.238v-48.762h-975.238v48.762zM0 21.333h999.619v-73.143h-999.619zM975.238-3.048h-950.857v-24.381h950.857zM865.524 569.905h-60.952c0 168.315-136.447 304.762-304.762 304.762s-304.762-136.447-304.762-304.762v0h-60.952c0 201.978 163.736 365.714 365.714 365.714s365.714-163.736 365.714-365.714v0z" />
<glyph unicode="&#xe90e;" glyph-name="locations_position_region_icon" d="M645.476 832.312c-152.798-0.038-276.88-122.933-278.838-275.271l-0.002-0.185v0.356s-0.312-13.98 1.692-37.22c8.123-42.615 20.721-80.497 37.6-115.946l-1.226 2.86 240.907-467.478 231.068 446.419c15.097 31.011 29.074 67.799 39.838 105.935l1.166 4.835 0.668 4.452c0 1.024 0.356 2.137 0.49 3.117 2.651 16.95 4.552 37.169 5.273 57.689l0.025 0.902c-5.139 149.938-127.924 269.535-278.641 269.535-0.007 0-0.014 0-0.022 0h0.001zM430.258 109.635l-204.399 412.36c-12.054 25.892-21.585 55.988-27.106 87.465l-0.32 2.202c-0.49 3.962-0.846 7.88-1.158 11.843-0.801 11.487-0.801 17.586-0.801 17.586 0 0.157-0.001 0.343-0.001 0.528 0 128.845 104.449 233.294 233.294 233.294 28.763 0 56.309-5.205 81.75-14.725l-1.61 0.528c35.235 16.282 76.273 26.623 119.492 28.601l0.717 0.026c-54.178 43.977-123.986 70.608-200.014 70.608-174.625 0-316.436-140.49-318.573-314.608l-0.002-0.202v0.401s-0.356-15.983 1.959-42.518c9.302-48.661 23.702-91.909 42.985-132.381l-1.402 3.268 275.367-534.261 80.139 155.025-44.922 87.174z" />
<glyph unicode="&#xe90f;" glyph-name="offer_icon" d="M960.538 448l56.388 97.807c4.325 7.358 6.88 16.207 6.88 25.653 0 18.858-10.183 35.337-25.35 44.24l-0.241 0.131-97.909 56.388v112.775c0 28.311-22.951 51.262-51.262 51.262v0h-112.775l-56.388 97.858c-6.834 11.604-17.761 20.177-30.752 23.801l-0.363 0.087c-3.994 1.126-8.581 1.773-13.319 1.773-9.427 0-18.255-2.563-25.826-7.029l0.237 0.13-97.807-56.388-97.909 56.644c-7.352 4.318-16.194 6.868-25.63 6.868-18.873 0-35.364-10.2-44.262-25.387l-0.131-0.242-56.388-97.909h-112.775c-28.311 0-51.262-22.951-51.262-51.262v0-112.775l-97.909-56.388c-15.421-9.031-25.613-25.517-25.613-44.384 0-9.461 2.563-18.324 7.033-25.932l-0.131 0.241 56.439-97.961-56.388-97.807c-4.347-7.372-6.915-16.243-6.915-25.713 0-18.851 10.176-35.326 25.334-44.231l0.241-0.131 97.909-56.388v-112.775c0-28.311 22.951-51.262 51.262-51.262v0h112.775l56.388-97.909c9.031-15.421 25.517-25.613 44.384-25.613 9.461 0 18.324 2.563 25.932 7.033l-0.241-0.131 97.858 56.439 97.909-56.388c7.358-4.325 16.207-6.88 25.653-6.88 18.858 0 35.337 10.183 44.24 25.35l0.131 0.241 56.388 97.909h112.775c28.311 0 51.262 22.951 51.262 51.262v0 112.775l97.909 56.388c15.421 9.031 25.613 25.517 25.613 44.384 0 9.461-2.563 18.324-7.033 25.932l0.131-0.241zM383.897 704.82c42.466 0 76.892-34.426 76.892-76.892s-34.426-76.892-76.892-76.892c-42.466 0-76.892 34.426-76.892 76.892v0c0 42.466 34.426 76.892 76.892 76.892v0zM399.276 212.71l-82.018 61.514 307.569 410.092 82.018-61.514zM640.205 192.205c-42.466 0-76.892 34.426-76.892 76.892s34.426 76.892 76.892 76.892c42.466 0 76.892-34.426 76.892-76.892v0c0-42.466-34.426-76.892-76.892-76.892v0z" />
<glyph unicode="&#xe910;" glyph-name="phone" d="M500.002 689.507l120.516-119.981c-9.786-122.88-107.105-220.198-229.108-229.928l-0.876-0.056-119.981 120.516-270.552-270.552 253.505-253.505 25.006 3.504c381.064 64.381 677.604 360.92 741.242 736.684l0.742 5.301 3.98 25.481-253.981 253.030z" />
<glyph unicode="&#xe911;" glyph-name="search" d="M953.442-64c-21.772 0.163-41.435 9.059-55.684 23.355l-274.093 274.093c-62.757-43.228-140.418-69.044-224.109-69.044-219.941 0-398.238 178.297-398.238 398.238s178.297 398.238 398.238 398.238c219.941 0 398.238-178.297 398.238-398.238 0-84.482-26.306-162.819-71.174-227.268l0.859 1.303 273.359-273.408c14.247-13.833 23.088-33.166 23.088-54.564 0-19.543-7.374-37.363-19.492-50.831l0.061 0.069c-0.439-0.536-0.926-0.975-1.365-1.463-2.419-2.376-5.012-4.598-7.75-6.637l-0.198-0.141c-11.364-8.557-25.716-13.704-41.271-13.704-0.165 0-0.33 0.001-0.495 0.002h0.025zM398.775 872.229c-171.789-0.499-310.857-139.876-310.857-311.734 0-172.166 139.568-311.735 311.735-311.735s311.735 139.568 311.735 311.735c0 0.017 0 0.033 0 0.050v-0.002c-0.472 172.241-140.208 311.686-312.514 311.686-0.035 0-0.069 0-0.104 0h0.006z" />
<glyph unicode="&#xe912;" glyph-name="settings-gear" d="M851.2 627.2l70.4 134.4-89.6 89.6-134.4-70.4c-20.309 11.661-43.91 20.555-68.962 25.37l-1.438 0.23-51.2 153.6h-128l-51.2-147.2c-24.308-6.335-45.598-15.096-65.325-26.292l1.325 0.692-134.4 70.4-96-96 70.4-134.4c-10.504-18.401-19.265-39.691-25.182-62.136l-0.418-1.864-147.2-51.2v-128l147.2-51.2c6.4-25.6 19.2-44.8 25.6-70.4l-70.4-134.4 89.6-89.6 134.4 70.4c20.309-11.661 43.91-20.555 68.962-25.37l1.438-0.23 51.2-147.2h128l51.2 147.2c25.6 6.4 44.8 19.2 70.4 25.6l134.4-70.4 89.6 89.6-70.4 134.4c11.661 20.309 20.555 43.91 25.37 68.962l0.23 1.438 147.2 51.2v128l-147.2 51.2c-6.335 24.308-15.096 45.598-26.292 65.325l0.692-1.325zM512 256c-1.038-0.021-2.262-0.032-3.488-0.032-104.13 0-188.544 84.414-188.544 188.544 0 1.227 0.012 2.45 0.035 3.671l-0.003-0.183c-0.021 1.038-0.032 2.262-0.032 3.488 0 104.13 84.414 188.544 188.544 188.544 1.227 0 2.45-0.012 3.671-0.035l-0.183 0.003c1.038 0.021 2.262 0.032 3.488 0.032 104.13 0 188.544-84.414 188.544-188.544 0-1.227-0.012-2.45-0.035-3.671l0.003 0.183c0.021-1.038 0.032-2.262 0.032-3.488 0-104.13-84.414-188.544-188.544-188.544-1.227 0-2.45 0.012-3.671 0.035l0.183-0.003z" />
<glyph unicode="&#xe913;" glyph-name="srchz" d="M939.571-40.090c-0.022 0-0.047 0-0.073 0-9.625 0-18.377 3.741-24.88 9.848l0.019-0.018-229.683 229.683c-67.035-47.672-150.567-76.213-240.764-76.213-231.079 0-418.406 187.327-418.406 418.406s187.327 418.406 418.406 418.406c231.079 0 418.406-187.327 418.406-418.406 0-115.082-46.461-219.312-121.65-294.957l0.021 0.021 225.28-224.051v-1.229c6.058-6.506 9.776-15.26 9.776-24.883 0-20.171-16.336-36.526-36.499-36.557h-0.003zM446.771 880.589c-188.523 0-341.35-152.828-341.35-341.35s152.828-341.35 341.35-341.35c188.523 0 341.35 152.828 341.35 341.35v0c-0.204 188.441-152.91 341.147-341.331 341.35h-0.019z" />
<glyph unicode="&#xe914;" glyph-name="star" d="M525.556 161.816l-326.412-223.33 113.371 377.856-312.515 240.64 391.948 10.289 130.779 368.347 130.682-371.322 392.094-10.289-309.784-237.666 113.566-378.539zM634.392 245.102l-38.522 128.488 107.813 81.92-135.802 4.291-45.251 127.074-45.251-127.025-135.802-4.291 107.813-81.92-38.522-128.488 111.714 77.385z" />
<glyph unicode="&#xe915;" glyph-name="Trash-icon" d="M832.35-82.216h-646.737c-39.667 0.092-71.788 32.269-71.788 71.949 0 0.057 0 0.114 0 0.171v-0.009 742.292h-23.983c-19.853 0-35.948 16.094-35.948 35.948s16.094 35.948 35.948 35.948v0h205.501c35.42 91.937 123.046 155.984 225.63 155.984s190.21-64.047 225.071-154.335l0.56-1.648h205.555c19.853 0 35.948-16.094 35.948-35.948s-16.094-35.948-35.948-35.948v0h-47.912v-742.292c0-0.048 0-0.105 0-0.162 0-39.718-32.182-71.919-71.893-71.949h-0.003zM700.632 432.802c19.841-0.031 35.917-16.107 35.948-35.945v-406.962h95.825v742.292h-646.737v-742.292h95.771v406.959c0 19.853 16.094 35.948 35.948 35.948s35.948-16.094 35.948-35.948v0-406.959h119.754v550.696c0 19.839 16.082 35.921 35.921 35.921s35.921-16.082 35.921-35.921v0-550.696h119.808v406.959c0 0 0 0 0 0 0 19.834 16.064 35.917 35.891 35.948h0.003zM521 887.889c-4.183 0.409-9.043 0.642-13.957 0.642-59.372 0-110.799-34.021-135.849-83.631l-0.399-0.871h300.409c-26.105 50.471-77.916 84.372-137.644 84.372-4.421 0-8.799-0.186-13.126-0.55l0.565 0.038z" />
<glyph unicode="&#xe916;" glyph-name="users" d="M999.782 396.493l-35.072 5.837c-5.837 11.674-5.837 17.562-11.674 29.235l17.562 29.235c5.117 7.2 8.18 16.17 8.18 25.856 0 12.831-5.375 24.406-13.997 32.597l-0.019 0.018-35.072 35.072c-8.209 8.641-19.784 14.017-32.615 14.017-9.686 0-18.656-3.063-25.995-8.274l0.139 0.094-29.235-17.562c-11.674 5.837-17.562 11.674-29.235 11.674l-5.837 35.072c-4.119 22.76-23.309 39.952-46.694 40.957l-0.102 0.003h-52.634c-23.487-1.008-42.678-18.2-46.751-40.657l-0.046-0.303-5.837-35.072c-11.674-5.837-17.562-5.837-29.235-11.674l-29.235 17.562c-7.188 5.246-16.198 8.394-25.943 8.394-12.844 0-24.411-5.468-32.501-14.202l-0.026-0.029-35.072-35.072c-8.641-8.209-14.017-19.784-14.017-32.615 0-9.686 3.063-18.656 8.274-25.995l-0.094 0.139 23.398-29.235c-5.837-11.674-5.837-17.562-11.674-29.235l-35.072-5.837c-22.76-4.119-39.952-23.309-40.957-46.694l-0.003-0.102v-52.634c1.008-23.487 18.2-42.678 40.657-46.751l0.303-0.046 35.072-5.837c5.837-11.674 5.837-17.562 11.674-29.235l-17.562-29.235c-5.117-7.2-8.18-16.17-8.18-25.856 0-12.831 5.375-24.406 13.997-32.597l0.019-0.018 35.072-35.072c8.209-8.641 19.784-14.017 32.615-14.017 9.686 0 18.656 3.063 25.995 8.274l-0.139-0.094 29.235 23.398c11.674-5.837 17.562-5.837 29.235-11.674l5.837-35.072c4.119-22.76 23.309-39.952 46.694-40.957l0.102-0.003h52.634c23.487 1.008 42.678 18.2 46.751 40.657l0.046 0.303 5.837 35.072c11.674 5.837 17.562 5.837 29.235 11.674l29.235-17.562c7.2-5.117 16.17-8.18 25.856-8.18 12.831 0 24.406 5.375 32.597 13.997l0.018 0.019 35.072 35.072c8.641 8.209 14.017 19.784 14.017 32.615 0 9.686-3.063 18.656-8.274 25.995l0.094-0.139-17.562 29.235c5.837 11.674 11.674 17.562 11.674 29.235l35.072 5.837c22.76 4.119 39.952 23.309 40.957 46.694l0.003 0.102v52.685c-8.029 20.385-25.209 35.625-46.339 40.814l-0.458 0.095zM917.862 279.552c-5.77-18.789-11.733-34.299-18.591-49.313l1.030 2.517c-2.746-4.116-4.382-9.176-4.382-14.618s1.636-10.502 4.443-14.715l-0.061 0.097 29.235-35.072-29.235-29.235-35.072 29.235c-4.099 2.802-9.163 4.475-14.618 4.475s-10.519-1.673-14.708-4.533l0.090 0.058c-12.677-10.443-28.921-16.974-46.671-17.558l-0.126-0.003c-11.674 0-17.562-11.674-17.562-23.398l-5.837-46.797h-40.96l-5.837 46.797c0 11.674-11.674 17.562-17.562 23.398-17.562 5.837-29.235 11.674-46.797 17.562-4.116 2.746-9.176 4.382-14.618 4.382s-10.502-1.636-14.715-4.443l0.097 0.061-35.072-29.235-29.235 29.235 23.398 35.072c2.802 4.099 4.475 9.163 4.475 14.618s-1.673 10.519-4.533 14.708l0.058-0.090c-10.446 12.675-16.979 28.921-17.558 46.672l-0.003 0.125c0 11.674-11.674 17.562-23.398 17.562l-46.797 5.837v40.96l46.797 5.837c11.674 0 17.562 11.674 23.398 17.562 5.771 18.79 11.733 34.299 18.592 49.314l-1.030-2.517c2.746 4.116 4.382 9.176 4.382 14.618s-1.636 10.502-4.443 14.715l0.061-0.097-35.072 40.96 29.235 29.235 35.072-23.398c4.099-2.802 9.163-4.475 14.618-4.475s10.519 1.673 14.708 4.533l-0.090-0.058c12.677 10.443 28.921 16.974 46.671 17.558l0.126 0.003c11.674 0 17.562 11.674 17.562 23.398l5.837 46.797h40.96l5.837-46.797c0-11.674 11.674-17.562 17.562-23.398 18.79-5.771 34.299-11.734 49.314-18.592l-2.517 1.030c4.116-2.746 9.176-4.382 14.618-4.382s10.502 1.636 14.715 4.443l-0.097-0.061 35.072 29.235 29.235-29.235-29.235-35.072c-2.802-4.099-4.475-9.163-4.475-14.618s1.673-10.519 4.533-14.708l-0.058 0.090c10.443-12.677 16.974-28.921 17.558-46.671l0.003-0.126c0-11.674 11.674-17.562 23.398-17.562l46.797-5.837v-40.96l-46.797-5.837c0-11.725-5.837-17.562-11.674-29.235zM736.666 431.616c-0.030 0-0.066 0-0.102 0-61.304 0-111.002-49.697-111.002-111.002 0-0.036 0-0.072 0-0.108v0.006c1.336-60.326 50.556-108.719 111.078-108.719s109.742 48.393 111.076 108.595l0.002 0.124c0 0.030 0 0.066 0 0.102 0 61.304-49.697 111.002-111.002 111.002-0.018 0-0.036 0-0.054 0h0.003zM800.973 326.4c0-0.015 0-0.033 0-0.051 0-35.516-28.791-64.307-64.307-64.307s-64.307 28.791-64.307 64.307c0 35.516 28.791 64.307 64.307 64.307v0c35.37-0.315 63.963-28.89 64.307-64.223v-0.033zM321.587 571.904c94.941 6.58 169.466 85.211 169.466 181.248s-74.524 174.667-168.897 181.216l-0.569 0.032c-97.501-3.38-175.257-83.234-175.257-181.248s77.756-177.868 174.949-181.24l0.308-0.008zM321.587 852.531c49.116-2.608 87.954-43.069 87.954-92.6 0-2.386-0.090-4.75-0.267-7.090l0.019 0.311c-4.436-46.534-43.325-82.641-90.646-82.641-50.276 0-91.034 40.757-91.034 91.034s40.757 91.034 91.034 91.034c1.034 0 2.064-0.017 3.090-0.051l-0.149 0.004zM432.64 86.63c-15.592-0.402-28.898-9.785-34.971-23.151l-0.101-0.248c-7.896-2.193-17.793-4.232-27.881-5.678l-1.354-0.159h-116.941c-1.968-0.313-4.237-0.492-6.548-0.492-8.384 0-16.218 2.354-22.878 6.438l0.191-0.109-64.307 216.32c-6.189 17.036-22.148 29.025-40.935 29.235h-34.995v157.901h116.941c31.085-18.478 68.535-29.4 108.535-29.4 2.956 0 5.899 0.060 8.826 0.178l-0.42-0.013c22.622 0 40.96 18.338 40.96 40.96s-18.338 40.96-40.96 40.96v0c-25.257 0.649-49.295 4.87-71.948 12.176l1.804-0.503c-5.837 11.674-17.562 11.674-29.235 11.674h-105.318c-64.307 0-111.104-23.398-111.104-64.307v-198.758c0-35.072 35.072-58.47 87.706-64.307l58.47-187.085c5.837-35.072 46.797-58.47 105.216-58.47h116.941c64.307 0 111.104 29.235 111.104 70.144-5.888 29.184-23.398 46.694-46.797 46.694z" />
<glyph unicode="&#xe917;" glyph-name="View-icon" d="M501.76 78.234h-1.331c-71.779 1.051-139.055 19.344-198.178 50.906l2.338-1.139c-58.537 30.85-108.913 67.325-153.448 109.864l0.258-0.245c-52.947 49.605-99.519 104.946-139.046 165.317l-2.112 3.438c-6.443 10.174-10.267 22.56-10.267 35.84s3.824 25.666 10.432 36.118l-0.164-0.278c41.567 63.923 88.148 119.339 140.659 168.497l0.499 0.463c44.287 42.47 94.702 79.066 149.667 108.223l3.626 1.755c56.822 30.406 124.168 48.593 195.688 49.406l0.254 0.002c286.259 0 482.202-314.982 490.394-328.346 6.404-10.184 10.204-22.569 10.204-35.84s-3.799-25.655-10.37-36.124l0.166 0.284c-41.554-63.915-88.1-119.329-140.565-168.504l-0.491-0.456c-44.205-42.358-94.517-78.868-149.362-107.968l-3.624-1.754c-56.594-30.388-123.689-48.589-194.955-49.457l-0.27-0.003zM501.76 738.15c-122.897-9.024-231.445-64.017-309.775-147.657l-0.241-0.26c-45.338-43.776-85.654-92.225-120.334-144.723l-1.983-3.194c36.66-55.694 76.975-104.142 122.066-147.676l0.25-0.24c78.572-83.9 187.12-138.893 308.472-147.826l1.544-0.091c128.973 0 239.667 80.435 309.811 147.917 45.403 43.8 85.797 92.245 120.586 144.729l1.987 3.188c-36.652 55.697-76.968 104.146-122.065 147.675l-0.252 0.242c-78.589 83.903-187.154 138.895-308.522 147.826l-1.545 0.091zM500.634 260.25c-100.525 0-182.016 81.491-182.016 182.016s81.491 182.016 182.016 182.016c100.525 0 182.016-81.491 182.016-182.016v0c-0.117-100.478-81.538-181.9-182.005-182.016h-0.011zM500.634 556.083c-0.015 0-0.033 0-0.051 0-62.86 0-113.818-50.958-113.818-113.818s50.958-113.818 113.818-113.818c62.86 0 113.818 50.958 113.818 113.818v0c-0.087 62.807-50.964 113.701-113.755 113.818h-0.011z" />
<glyph unicode="&#xe918;" glyph-name="window_ad_filled_icon" d="M256.029 594.261c-20.186 0-36.551-16.364-36.551-36.551v0-292.521c0-20.186 16.364-36.551 36.551-36.551h292.813c20.186 0 36.551 16.364 36.551 36.551v0 292.521c0 20.186-16.364 36.551-36.551 36.551v0zM512.058 521.101v-219.42h-219.479v219.479zM0 777.13c0 100.996 81.874 182.87 182.87 182.87v0h658.261c100.996 0 182.87-81.874 182.87-182.87v0-658.261c0-100.996-81.874-182.87-182.87-182.87v0h-658.261c-100.996 0-182.87 81.874-182.87 182.87v0zM109.71 667.42v-530.275c0-50.498 40.937-91.435 91.435-91.435v0h621.71c50.498 0 91.435 40.937 91.435 91.435v0 530.275z" />
<glyph unicode="&#xe919;" d="M512-64c-282.765 0.007-511.989 229.234-511.989 512 0 282.77 229.23 512 512 512s512-229.23 512-512c0-141.388-57.31-269.39-149.967-362.044v0c-92.653-92.65-220.651-149.956-362.033-149.956-0.004 0-0.008 0-0.012 0h0.001z" />
<glyph unicode="&#xe91a;" d="M709.566 487.527h-158.108v158.108c0 21.83-17.697 39.527-39.527 39.527s-39.527-17.697-39.527-39.527v0-158.108h-158.039c-21.83 0-39.527-17.697-39.527-39.527s17.697-39.527 39.527-39.527v0h158.108v-158.039c0-21.83 17.697-39.527 39.527-39.527s39.527 17.697 39.527 39.527v0 158.108h158.039c21.83 0 39.527 17.697 39.527 39.527s-17.697 39.527-39.527 39.527v0z" />
<glyph unicode="&#xe91b;" glyph-name="no" horiz-adv-x="1021" d="M510.911-64c-0.362-0.001-0.791-0.001-1.221-0.001-90.086 0-174.578 23.951-247.455 65.832l2.419-1.281c-116.686 69.415-204.095 177.67-245.187 306.595l-1.070 3.889c-11.365 40.481-17.898 86.967-17.898 134.98 0 233.749 154.847 431.332 367.559 495.764l3.668 0.955c41.276 11.424 88.672 17.989 137.602 17.989 90.599 0 175.94-22.508 250.738-62.237l-2.897 1.404c116.686-69.415 204.095-177.67 245.187-306.595l1.070-3.889c11.424-41.276 17.989-88.672 17.989-137.602 0-90.599-22.508-175.94-62.237-250.738l1.404 2.897c-69.415-116.686-177.67-204.095-306.595-245.187l-3.889-1.070c-41.129-11.741-88.77-19.526-137.878-21.66l-1.307-0.045zM510.911 792.574c-4.721 0.269-10.244 0.422-15.803 0.422-28.677 0-56.403-4.073-82.631-11.672l2.093 0.519c-144.396-39.748-248.706-169.886-248.706-324.386 0-33.193 4.815-65.262 13.784-95.546l-0.604 2.376c25.485-87.852 83.065-159.379 158.892-202.535l1.675-0.878c49.054-27.15 107.552-43.129 169.782-43.129 30.977 0 61.029 3.959 89.678 11.399l-2.472-0.545c87.852 25.485 159.379 83.065 202.535 158.892l0.878 1.675c27.15 49.054 43.129 107.552 43.129 169.782 0 30.977-3.959 61.029-11.399 89.678l0.545-2.472c-25.513 87.86-83.119 159.387-158.972 202.534l-1.676 0.878c-42.246 27.129-93.81 43.247-149.138 43.247-4.076 0-8.132-0.087-12.166-0.261l0.575 0.020zM810.825 171.848c-2.005-0.221-4.331-0.347-6.686-0.347-13.495 0-26.022 4.141-36.381 11.222l0.222-0.143-556.741 385.442c-19.563 12.59-32.335 34.254-32.335 58.902 0 38.558 31.257 69.815 69.815 69.815 13.91 0 26.87-4.068 37.755-11.079l-0.276 0.166 556.741-385.442c19.557-12.568 32.327-34.213 32.327-58.841 0-13.921-4.080-26.889-11.111-37.774l0.166 0.274c-9.95-19.262-29.715-32.203-52.503-32.203-0.349 0-0.697 0.003-1.045 0.009l0.052-0.001z" />
<glyph unicode="&#xe91c;" glyph-name="shut_down" d="M512-64v0c-20.705 0.013-41.118 1.203-61.191 3.507l2.465-0.23c-256.466 30.359-453.486 246.494-453.486 508.645 0 196.462 110.653 367.080 273.036 452.93l2.786 1.343c7.673 4.124 16.782 6.564 26.458 6.605h0.013c0.122 0.001 0.267 0.002 0.411 0.002 30.735 0 55.678-24.8 55.909-55.48v-4.732c-0.44-20.698-12.445-38.492-29.795-47.218l-0.311-0.142c-128.443-67.813-214.491-200.498-214.491-353.28 0-219.91 178.272-398.182 398.182-398.182 0.005 0 0.010 0 0.015 0h-0.001c16.053 0.014 31.872 0.944 47.428 2.739l-1.911-0.179c199.383 23.681 352.526 191.734 352.526 395.556 0 151.786-84.929 283.736-209.86 350.921l-2.122 1.043c-19.015 9.668-31.943 28.86-32.51 51.125l-0.002 0.075c0.145 31.447 25.671 56.883 57.139 56.883 0.054 0 0.108 0 0.163 0h-0.008c0.004 0 0.008 0 0.013 0 9.926 0 19.268-2.502 27.43-6.91l-0.307 0.151c164.002-87.544 273.715-257.545 273.715-453.171 0-282.661-229.054-511.824-511.675-512h-0.018zM512 448c-28.277 0-51.2 22.923-51.2 51.2v0 409.6c0 28.277 22.923 51.2 51.2 51.2s51.2-22.923 51.2-51.2v0-409.6c0-28.277-22.923-51.2-51.2-51.2v0z" />
<glyph unicode="&#xe91d;" d="M1024 448c0-282.77-229.23-512-512-512s-512 229.23-512 512c0 282.77 229.23 512 512 512s512-229.23 512-512z" />
<glyph unicode="&#xe91e;" d="M1013.106 448c0-276.753-224.353-501.106-501.106-501.106s-501.106 224.353-501.106 501.106c0 276.753 224.353 501.106 501.106 501.106s501.106-224.353 501.106-501.106z" />
<glyph unicode="&#xe91f;" d="M397.051 226.533v0c-12.789 0-25.578 12.789-38.367 19.173l-108.675 140.658c-5.496 8.026-8.777 17.946-8.777 28.633 0 17.149 8.449 32.325 21.412 41.591l0.155 0.105c8.282 8.44 19.808 13.671 32.556 13.671 15.651 0 29.46-7.884 37.672-19.898l0.101-0.157 70.329-89.502 242.949 294.128c9.041 8.909 21.46 14.41 35.165 14.41s26.124-5.501 35.171-14.416l-0.006 0.006c9.63-10.227 15.548-24.045 15.548-39.244 0-11.552-3.419-22.306-9.299-31.304l0.134 0.219-287.591-338.835c-8.355-11.711-21.896-19.256-37.198-19.256-0.449 0-0.897 0.007-1.344 0.019l0.066-0.002z" />
<glyph unicode="&#xe920;" glyph-name="wifi" d="M683.065 233.927c-47.774 33.752-107.217 53.949-171.378 53.949s-123.604-20.197-172.32-54.58l0.942 0.631 56.32-79.644c31.883 22.497 71.543 35.957 114.347 35.957s82.464-13.46 114.978-36.379l-0.631 0.422zM797.127 392.647c-79.049 57.081-177.893 91.297-284.729 91.297s-205.68-34.216-286.172-92.288l1.443 0.991 57.458-79.076c63.429 44.831 142.359 71.658 227.556 71.658s164.126-26.827 228.804-72.494l-1.248 0.836zM910.279 551.765c-110.461 80.131-248.73 128.182-398.222 128.182s-287.762-48.051-400.206-129.552l1.984 1.369 55.808-79.303c94.601 68.628 213.019 109.781 341.049 109.781s246.448-41.153 342.747-110.953l-1.698 1.172zM0 711.111l56.889-80.327c126.446 91.248 284.534 145.943 455.396 145.943s328.95-54.695 457.71-147.531l-2.315 1.588 57.287 79.303c-142.272 102.705-320.16 164.268-512.427 164.268s-370.155-61.563-515.027-166.053l2.601 1.785zM463.246 92.444h97.906v-97.906h-97.906v97.906z" />
<glyph unicode="&#xe921;" glyph-name="dashb" d="M445.952-59.699c-253.069 33.701-446.26 248.17-446.26 507.762 0 208.808 124.997 388.421 304.247 468.096l3.261 1.294c5.496 2.463 11.912 3.898 18.662 3.898 25.75 0 46.624-20.874 46.624-46.624 0-18.999-11.364-35.344-27.665-42.608l-0.296-0.118c-149.198-66.319-251.356-213.22-251.356-383.981 0-231.391 187.579-418.97 418.97-418.97 172.433 0 320.536 104.168 384.814 253.007l1.044 2.717c7.502 16.277 23.677 27.371 42.443 27.371 25.732 0 46.592-20.86 46.592-46.592 0-6.129-1.184-11.982-3.335-17.342l0.111 0.314c-79.793-185.286-260.821-312.65-471.597-312.65-23.271 0-46.179 1.553-68.627 4.56l2.624-0.287zM512 401.357c-25.644 0.116-46.387 20.931-46.387 46.592 0 0.018 0 0.036 0 0.054v-0.003 465.459c0.029 25.638 20.761 46.425 46.376 46.541h0.011c282.77 0 512-229.23 512-512v0c-0.029-25.692-20.849-46.512-46.538-46.541h-0.003zM558.592 494.438h369.766l-1.28 10.854c-12.506 89.186-51.607 167.545-108.907 228.628l0.209-0.225-10.24 10.24c-62.563 62.357-144.634 105.177-236.265 118.512l-2.276 0.272-10.854 1.331z" />
<glyph unicode="&#xe922;" glyph-name="docm" horiz-adv-x="838" d="M139.622-64c-77.076 0.087-139.535 62.546-139.622 139.614v744.764c0.087 77.076 62.546 139.535 139.614 139.622h328.098c10.584-0.484 20.153-4.466 27.665-10.808l-0.069 0.056c1.34-1.154 2.56-2.324 3.713-3.558l0.025-0.026 324.454-324.454c7.559-7.25 12.66-17.013 13.956-27.941l0.021-0.219c0.189-1.53 0.3-3.308 0.307-5.111v-512.009c0-0.046 0-0.1 0-0.154 0-77.124-62.463-139.659-139.56-139.776h-0.011zM93.082 820.378v-744.755c0.029-25.692 20.849-46.512 46.538-46.541h558.595c25.692 0.029 46.512 20.849 46.541 46.538v465.462h-279.296c-23.684 0.066-43.204 17.812-46.057 40.733l-0.023 0.227-0.307 5.427v279.45h-279.45c-25.692-0.029-46.512-20.849-46.541-46.538v-0.003zM512 634.163h166.912l-166.912 167.117z" />
</font>
</defs>
</svg>
